custom-analysis
version=1
nRows=6
nColumns=98
inDegrees=no

This file contains tibia displacement and acting force.

Units are S.I. units (seconds, meters, Newtons, ...)
Angles are in degrees.

endheader
time	APT	SIT	knee_angle	aACL_R_force	pACL_R_force	aPCL_R_force	pPCL_R_force	aMCL_R_force	mMCL_R_force	pMCL_R_force	aLCL_R_force	mLCL_R_force	pLCL_R_force	aPCL_L_force	pPCL_L_force	aMCL_L_force	aLCL_L_force	aACL_R_length	pACL_R_length	aPCL_R_length	pPCL_R_length	aMCL_R_length	mMCL_R_length	pMCL_R_length	aLCL_R_length	mLCL_R_length	pLCL_R_length	aPCL_L_length	pPCL_L_length	aMCL_L_length	aLCL_L_length	aACL_R_strain	pACL_R_strain	aPCL_R_strain	pPCL_R_strain	aMCL_R_strain	mMCL_R_strain	pMCL_R_strain	aLCL_R_strain	mLCL_R_strain	pLCL_R_strain	aPCL_L_strain	pPCL_L_strain	aMCL_L_strain	aLCL_L_strain	femur_lat_meniscii_r.femur_lat_r.force.X	femur_lat_meniscii_r.femur_lat_r.force.Y	femur_lat_meniscii_r.femur_lat_r.force.Z	femur_lat_meniscii_r.femur_lat_r.torque.X	femur_lat_meniscii_r.femur_lat_r.torque.Y	femur_lat_meniscii_r.femur_lat_r.torque.Z	femur_lat_meniscii_r.meniscus_lat_r.force.X	femur_lat_meniscii_r.meniscus_lat_r.force.Y	femur_lat_meniscii_r.meniscus_lat_r.force.Z	femur_lat_meniscii_r.meniscus_lat_r.torque.X	femur_lat_meniscii_r.meniscus_lat_r.torque.Y	femur_lat_meniscii_r.meniscus_lat_r.torque.Z	femur_med_meniscii_r.femur_med_r.force.X	femur_med_meniscii_r.femur_med_r.force.Y	femur_med_meniscii_r.femur_med_r.force.Z	femur_med_meniscii_r.femur_med_r.torque.X	femur_med_meniscii_r.femur_med_r.torque.Y	femur_med_meniscii_r.femur_med_r.torque.Z	femur_med_meniscii_r.meniscus_med_r.force.X	femur_med_meniscii_r.meniscus_med_r.force.Y	femur_med_meniscii_r.meniscus_med_r.force.Z	femur_med_meniscii_r.meniscus_med_r.torque.X	femur_med_meniscii_r.meniscus_med_r.torque.Y	femur_med_meniscii_r.meniscus_med_r.torque.Z	femur_med_tibia_r.tibia_upper_r.force.X	femur_med_tibia_r.tibia_upper_r.force.Y	femur_med_tibia_r.tibia_upper_r.force.Z	femur_med_tibia_r.tibia_upper_r.torque.X	femur_med_tibia_r.tibia_upper_r.torque.Y	femur_med_tibia_r.tibia_upper_r.torque.Z	femur_med_tibia_r.femur_med_r.force.X	femur_med_tibia_r.femur_med_r.force.Y	femur_med_tibia_r.femur_med_r.force.Z	femur_med_tibia_r.femur_med_r.torque.X	femur_med_tibia_r.femur_med_r.torque.Y	femur_med_tibia_r.femur_med_r.torque.Z	femur_lat_tibia_r.tibia_upper_r.force.X	femur_lat_tibia_r.tibia_upper_r.force.Y	femur_lat_tibia_r.tibia_upper_r.force.Z	femur_lat_tibia_r.tibia_upper_r.torque.X	femur_lat_tibia_r.tibia_upper_r.torque.Y	femur_lat_tibia_r.tibia_upper_r.torque.Z	femur_lat_tibia_r.femur_lat_r.force.X	femur_lat_tibia_r.femur_lat_r.force.Y	femur_lat_tibia_r.femur_lat_r.force.Z	femur_lat_tibia_r.femur_lat_r.torque.X	femur_lat_tibia_r.femur_lat_r.torque.Y	femur_lat_tibia_r.femur_lat_r.torque.Z	femur_lat_meniscii_force_r	femur_med_meniscii_force_r	femur_lat_tibia_force_r	femur_med_tibia_force_r
      0.20899345	      0.01350292	      0.02610955	     81.24441265	      0.45207620	      0.00000000	    963.74441802	    608.11239993	     23.58263385	      8.85596908	      0.00000000	      0.00000000	      0.00000000	      0.00000000	      0.00000000	      0.00000000	      0.00000001	      0.00000000	      0.03102433	      0.02442811	      0.03716234	      0.03394767	      0.06148431	      0.05992695	      0.05656919	      0.05013946	      0.04470492	      0.03971374	      0.01525851	      0.01651186	      0.06550154	      0.04489616	      0.00060732	     -0.02516468	      0.19511102	      0.13583701	      0.02427761	      0.00223191	     -0.03675942	     -0.10428787	     -0.20621395	     -0.24127448	      0.00000079	     -0.32847694	      0.00000060	     -0.00000086	    134.94072019	     84.03001313	      8.71546291	     -5.40528750	      3.14910818	     53.55567232	   -134.94072019	    -84.03001313	     -8.71546291	      2.19542255	     -3.74952386	      1.93127439	      0.06033523	      0.00082331	     -0.03779520	      0.01504334	     -0.00093744	      0.02399350	     -0.06033523	     -0.00082331	      0.03779520	     -0.00013772	      0.00179880	     -0.00017981	   -902.55375802	   -372.90962305	    319.20255068	     -8.36948138	     21.98742248	      2.22804784	    902.55375802	    372.90962305	   -319.20255068	    135.24392260	    -15.77344991	    363.77232915	   -318.97542887	   -143.48607124	    -87.96309471	      4.69287502	    -11.08017979	      1.06189496	    318.97542887	    143.48607124	     87.96309471	    -38.99116470	      7.83546397	    128.60479334	    159.20427245	      0.07120039	    360.65368831	   1027.40213230
      0.20904339	      0.01350121	      0.02611930	     81.27187161	      0.40665589	      0.00000000	    964.14050213	    608.42495533	     23.54740423	      8.83989130	      0.00000000	      0.00000000	      0.00000000	      0.00000000	      0.00000000	      0.00000000	      0.00000001	      0.00000000	      0.03102438	      0.02442950	      0.03716449	      0.03394935	      0.06148566	      0.05992756	      0.05657015	      0.05013689	      0.04470198	      0.03971125	      0.01525851	      0.01651186	      0.06550154	      0.04489616	      0.00060907	     -0.02510924	      0.19518037	      0.13589336	      0.02430007	      0.00224204	     -0.03674312	     -0.10433366	     -0.20626610	     -0.24132201	      0.00000079	     -0.32847694	      0.00000060	     -0.00000086	    134.86352556	     84.20769583	      8.73288642	     -5.41639582	      3.14717327	     53.52117646	   -134.86352556	    -84.20769583	     -8.73288642	      2.20014253	     -3.74804413	      1.94195288	      0.05994179	      0.00080377	     -0.03744053	      0.01490194	     -0.00093031	      0.02383697	     -0.05994179	     -0.00080377	      0.03744053	     -0.00013585	      0.00178325	     -0.00017833	   -902.90844706	   -372.78584871	    319.50697080	     -8.36440058	     22.00238436	      2.23609359	    902.90844706	    372.78584871	   -319.50697080	    135.36224032	    -15.78051458	    363.91193434	   -318.96204012	   -143.56998413	    -87.95085856	      4.69327404	    -11.08020813	      1.07189871	    318.96204012	    143.56998413	     87.95085856	    -38.98725922	      7.83507151	    128.59578023	    159.23369577	      0.07067855	    360.67225691	   1027.76342471
      0.20916441	      0.01349702	      0.02614291	     81.33840446	      0.26871654	      0.00000000	    965.11067433	    609.21353252	     23.44489579	      8.79095017	      0.00000000	      0.00000000	      0.00000000	      0.00000000	      0.00000000	      0.00000000	      0.00000001	      0.00000000	      0.03102449	      0.02443285	      0.03716973	      0.03395345	      0.06148891	      0.05992902	      0.05657247	      0.05013069	      0.04469488	      0.03970525	      0.01525851	      0.01651186	      0.06550154	      0.04489616	      0.00061246	     -0.02497545	      0.19534870	      0.13603035	      0.02435428	      0.00226648	     -0.03670356	     -0.10444456	     -0.20639229	     -0.24143678	      0.00000079	     -0.32847694	      0.00000060	     -0.00000086	    134.79046522	     80.97153343	      8.11522164	     -5.09761119	      3.14370010	     53.52673623	   -134.79046522	    -80.97153343	     -8.11522164	      2.11619557	     -3.72808725	      1.82420095	      0.05916162	      0.00086166	     -0.03693493	      0.01470105	     -0.00091796	      0.02352557	     -0.05916162	     -0.00086166	      0.03693493	     -0.00013325	      0.00175959	     -0.00017153	   -904.02850126	   -372.49017189	    319.52122989	     -8.34556901	     22.01311572	      2.25295580	    904.02850126	    372.49017189	   -319.52122989	    135.35717106	    -15.79242219	    364.35572148	   -319.03165892	   -143.44147531	    -87.87284582	      4.68600264	    -11.08069899	      1.08143120	    319.03165892	    143.44147531	     87.87284582	    -38.95137894	      7.83558349	    128.61988769	    157.45067660	      0.06974975	    360.66368442	   1028.64487341
      0.20919444	      0.01349597	      0.02614877	     81.35491044	      0.22980187	      0.00000000	    965.35468519	    609.41802641	     23.41948959	      8.77990476	      0.00000000	      0.00000000	      0.00000000	      0.00000000	      0.00000000	      0.00000000	      0.00000001	      0.00000000	      0.03102451	      0.02443368	      0.03717103	      0.03395447	      0.06148972	      0.05992938	      0.05657305	      0.05012915	      0.04469311	      0.03970376	      0.01525851	      0.01651186	      0.06550154	      0.04489616	      0.00061307	     -0.02494241	      0.19539055	      0.13606445	      0.02436768	      0.00227253	     -0.03669373	     -0.10447206	     -0.20642355	     -0.24146516	      0.00000079	     -0.32847694	      0.00000060	     -0.00000086	    134.66118430	     81.04520476	      8.14812238	     -5.11290801	      3.14125103	     53.47304208	   -134.66118430	    -81.04520476	     -8.14812238	      2.11871980	     -3.72629346	      1.82998274	      0.05897171	      0.00087497	     -0.03681182	      0.01465212	     -0.00091495	      0.02344977	     -0.05897171	     -0.00087497	      0.03681182	     -0.00013261	      0.00175383	     -0.00016989	   -904.21353881	   -372.61361338	    319.59166857	     -8.34387830	     22.01741371	      2.26596478	    904.21353881	    372.61361338	   -319.59166857	    135.38580657	    -15.79494764	    364.42571914	   -319.01564416	   -143.50733366	    -87.86879718	      4.68665509	    -11.08065539	      1.08818023	    319.01564416	    143.50733366	     87.86879718	    -38.95070454	      7.83522137	    128.61100490	    157.37964185	      0.06952365	    360.67473095	   1028.87407552
      0.20920945	      0.01349544	      0.02615170	     81.36316309	     -0.36623903	      0.00000000	    967.05557252	    613.87239084	     24.97832442	     10.72666083	      0.00000000	      0.00000000	      0.00000000	      0.00000000	      0.00000000	      0.00000000	      0.00000001	      0.00000000	      0.03102452	      0.02443409	      0.03717168	      0.03395498	      0.06149012	      0.05992956	      0.05657334	      0.05012838	      0.04469223	      0.03970302	      0.01525851	      0.01651186	      0.06550154	      0.04489616	      0.00061334	     -0.02492591	      0.19541149	      0.13608152	      0.02437437	      0.00227555	     -0.03668881	     -0.10448581	     -0.20643918	     -0.24147933	      0.00000079	     -0.32847694	      0.00000060	     -0.00000086	    128.94132235	     81.11064721	      9.60115441	     -5.70302739	      3.02317227	     51.15572154	   -128.94132235	    -81.11064721	     -9.60115441	      2.13599373	     -3.63221219	      1.89390536	      0.05586725	      0.00113365	     -0.03495948	      0.01391786	     -0.00086751	      0.02221259	     -0.05586725	     -0.00113365	      0.03495948	     -0.00012802	      0.00166458	     -0.00014980	   -901.33331763	   -376.36841292	    317.21411406	     -8.35028234	     21.89500956	      2.45336925	    901.33331763	    376.36841292	   -317.21411406	    134.46584778	    -15.72905539	    363.20763463	   -317.76309985	   -145.07501187	    -88.78613085	      4.73678127	    -11.08814568	      1.17150184	    317.76309985	    145.07501187	     88.78613085	    -39.35857921	      7.82098403	    128.07743874	    152.63349523	      0.06591358	    360.42075929	   1026.97601037
      0.20922447	      0.01349472	      0.02615451	     81.37138346	     -2.21008714	      0.00000000	    972.26991487	    627.94591032	     30.01947117	     16.99049539	      0.00000000	      0.00000000	      0.00000000	      0.00000000	      0.00000000	      0.00000000	      0.00000001	      0.00000000	      0.03102446	      0.02443449	      0.03717252	      0.03395569	      0.06149061	      0.05992986	      0.05657376	      0.05012774	      0.04469149	      0.03970244	      0.01525851	      0.01651186	      0.06550154	      0.04489616	      0.00061155	     -0.02491009	      0.19543844	      0.13610520	      0.02438261	      0.00228050	     -0.03668164	     -0.10449723	     -0.20645233	     -0.24149040	      0.00000079	     -0.32847694	      0.00000060	     -0.00000086	    110.65931022	     80.42950495	     13.78089029	     -7.37934372	      2.64042770	     43.76172533	   -110.65931022	    -80.42950495	    -13.78089029	      2.16210888	     -3.31343622	      2.06008567	      0.04597120	      0.00171949	     -0.02899722	      0.01155203	     -0.00071581	      0.01827107	     -0.04597120	     -0.00171949	      0.02899722	     -0.00011183	      0.00137796	     -0.00009491	   -891.39608160	   -387.24818304	    309.63546953	     -8.36333815	     21.49711120	      3.00690682	    891.39608160	    387.24818304	   -309.63546953	    131.52055959	    -15.50961404	    359.03337292	   -313.68454871	   -149.79463304	    -91.58997189	      4.88920227	    -11.10457049	      1.42294095	    313.68454871	    149.79463304	     91.58997189	    -40.60420315	      7.77219840	    126.34667342	    137.49291306	      0.05437966	    359.47899958	   1020.01090855
